<svg width="88.000000" height="88.000000" viewBox="0 0 88 88" fill="none" xmlns="http://www.w3.org/2000/svg" xmlns:xlink="http://www.w3.org/1999/xlink">
	<desc>
			Created with Pixso.
	</desc>
	<defs/>
	<rect rx="44.000000" width="88.000000" height="88.000000" fill="#FFFFFF" fill-opacity="1.000000"/>
	<rect rx="-0.500000" width="73.516144" height="73.516144" transform="translate(7.234375 7.246094)" fill="#1A1A27" fill-opacity="0"/>
	<path d="M54.22 21.71L64.03 21.71L32.45 65.94L22.8 65.94L54.22 21.71ZM42.69 34.74L33.45 21.71L23.6 21.71L37.87 41.85L42.69 34.74ZM40.28 34.77L37.84 38.37L27.45 23.7L32.42 23.7L40.28 34.77ZM26.65 63.96L31.42 63.96L60.17 23.7L55.24 23.7L26.65 63.96Z" fill="#000000" fill-opacity="1.000000" fill-rule="evenodd"/>
	<path d="M56.37 64.07L61.14 64.07L49.95 48.17L47.47 51.71L56.37 64.07ZM45.04 51.73L55.36 66.05L64.97 66.05L49.95 44.71L45.04 51.73Z" fill="#000000" fill-opacity="1.000000" fill-rule="evenodd"/>
	<path d="" fill="#000000" fill-opacity="0.300000" fill-rule="nonzero"/>
	<path d="M43.85 7.39L43.92 7.39C44.21 7.39 44.45 7.63 44.45 7.92C44.45 8.22 44.21 8.46 43.92 8.46L43.85 8.46C43.56 8.46 43.32 8.22 43.32 7.92C43.32 7.63 43.56 7.39 43.85 7.39ZM38.82 8.27C38.87 8.56 38.67 8.84 38.38 8.88L38.31 8.89C38.02 8.94 37.74 8.74 37.7 8.45C37.65 8.16 37.85 7.89 38.14 7.84L38.21 7.83C38.5 7.78 38.77 7.98 38.82 8.27ZM48.95 8.27C49 7.98 49.27 7.78 49.56 7.83L49.63 7.84C49.92 7.89 50.12 8.16 50.07 8.45C50.03 8.74 49.75 8.94 49.46 8.89L49.4 8.88C49.11 8.84 48.91 8.56 48.95 8.27ZM54.46 9.5C54.55 9.22 54.85 9.07 55.13 9.16L55.2 9.18C55.48 9.27 55.63 9.57 55.54 9.85C55.45 10.13 55.15 10.28 54.87 10.19L54.8 10.17C54.52 10.08 54.37 9.78 54.46 9.5ZM33.31 9.5C33.4 9.78 33.25 10.08 32.97 10.17L32.9 10.19C32.62 10.28 32.32 10.13 32.23 9.85C32.14 9.57 32.29 9.27 32.57 9.18L32.64 9.16C32.92 9.07 33.22 9.22 33.31 9.5ZM59.71 11.58C59.84 11.32 60.16 11.21 60.42 11.35L60.49 11.38C60.75 11.51 60.85 11.83 60.72 12.09C60.58 12.36 60.26 12.46 60 12.33L59.94 12.29C59.68 12.16 59.57 11.84 59.71 11.58ZM28.06 11.58C28.2 11.84 28.09 12.16 27.83 12.29L27.77 12.33C27.51 12.46 27.19 12.36 27.05 12.09C26.92 11.83 27.02 11.51 27.28 11.38L27.35 11.35C27.61 11.21 27.93 11.32 28.06 11.58ZM23.21 14.46C23.38 14.69 23.33 15.03 23.09 15.2L23.04 15.24C22.8 15.41 22.46 15.36 22.29 15.12C22.12 14.89 22.17 14.55 22.41 14.38L22.46 14.34C22.7 14.16 23.04 14.22 23.21 14.46ZM64.56 14.46C64.74 14.22 65.07 14.16 65.31 14.34L65.36 14.38C65.6 14.55 65.65 14.89 65.48 15.12C65.31 15.36 64.97 15.41 64.74 15.24L64.68 15.2C64.44 15.03 64.39 14.69 64.56 14.46ZM18.86 18.05C19.07 18.26 19.07 18.6 18.86 18.81L18.81 18.86C18.6 19.06 18.27 19.06 18.06 18.86C17.85 18.65 17.85 18.31 18.06 18.1L18.11 18.05C18.32 17.85 18.65 17.85 18.86 18.05ZM68.91 18.05C69.12 17.85 69.45 17.85 69.66 18.05L69.71 18.1C69.92 18.31 69.92 18.65 69.71 18.86C69.5 19.06 69.17 19.06 68.96 18.86L68.91 18.81C68.7 18.6 68.7 18.26 68.91 18.05ZM15.13 22.29C15.37 22.46 15.42 22.79 15.24 23.03L15.2 23.09C15.03 23.32 14.7 23.38 14.46 23.2C14.22 23.03 14.17 22.7 14.34 22.46L14.38 22.4C14.56 22.17 14.89 22.11 15.13 22.29ZM72.64 22.29C72.88 22.11 73.21 22.17 73.39 22.4L73.43 22.46C73.6 22.7 73.55 23.03 73.31 23.2C73.07 23.38 72.74 23.32 72.57 23.09L72.53 23.03C72.35 22.79 72.41 22.46 72.64 22.29ZM75.67 27.05C75.93 26.91 76.25 27.02 76.39 27.28L76.42 27.34C76.55 27.6 76.45 27.93 76.19 28.06C75.93 28.19 75.61 28.09 75.47 27.83L75.44 27.76C75.31 27.5 75.41 27.18 75.67 27.05ZM12.1 27.05C12.36 27.18 12.46 27.5 12.33 27.76L12.3 27.83C12.17 28.09 11.85 28.19 11.58 28.06C11.32 27.93 11.22 27.6 11.35 27.34L11.38 27.28C11.52 27.02 11.84 26.91 12.1 27.05ZM9.86 32.23C10.13 32.32 10.29 32.62 10.2 32.9L10.17 32.96C10.08 33.24 9.78 33.4 9.5 33.31C9.23 33.21 9.07 32.91 9.16 32.63L9.18 32.57C9.28 32.29 9.58 32.14 9.86 32.23ZM77.92 32.23C78.2 32.14 78.5 32.29 78.59 32.57L78.61 32.63C78.7 32.91 78.55 33.21 78.27 33.31C77.99 33.4 77.69 33.24 77.6 32.96L77.58 32.9C77.48 32.62 77.64 32.32 77.92 32.23ZM8.45 37.69C8.75 37.74 8.94 38.01 8.9 38.3L8.89 38.37C8.84 38.66 8.57 38.86 8.28 38.81C7.99 38.77 7.79 38.5 7.83 38.21L7.85 38.14C7.89 37.85 8.16 37.65 8.45 37.69ZM79.32 37.69C79.61 37.65 79.88 37.85 79.93 38.14L79.94 38.21C79.98 38.5 79.78 38.77 79.49 38.81C79.2 38.86 78.93 38.66 78.88 38.37L78.87 38.3C78.83 38.01 79.03 37.74 79.32 37.69ZM7.93 43.31C8.22 43.31 8.46 43.55 8.46 43.85L8.46 43.92C8.46 44.21 8.22 44.45 7.93 44.45C7.64 44.45 7.4 44.21 7.4 43.92L7.4 43.85C7.4 43.55 7.64 43.31 7.93 43.31ZM79.84 43.31C80.14 43.31 80.37 43.55 80.37 43.85L80.37 43.92C80.37 44.21 80.14 44.45 79.84 44.45C79.55 44.45 79.31 44.21 79.31 43.92L79.31 43.85C79.31 43.55 79.55 43.31 79.84 43.31ZM8.28 48.95C8.57 48.9 8.84 49.1 8.89 49.39L8.9 49.46C8.94 49.75 8.75 50.02 8.45 50.07C8.16 50.11 7.89 49.92 7.85 49.63L7.83 49.56C7.79 49.26 7.99 48.99 8.28 48.95ZM79.49 48.95C79.78 48.99 79.98 49.26 79.94 49.56L79.93 49.63C79.88 49.92 79.61 50.11 79.32 50.07C79.03 50.02 78.83 49.75 78.87 49.46L78.88 49.39C78.93 49.1 79.2 48.9 79.49 48.95ZM9.5 54.46C9.78 54.37 10.08 54.52 10.17 54.8L10.2 54.86C10.29 55.14 10.13 55.44 9.86 55.54C9.58 55.63 9.28 55.47 9.18 55.19L9.16 55.13C9.07 54.85 9.23 54.55 9.5 54.46ZM78.27 54.46C78.55 54.55 78.7 54.85 78.61 55.13L78.59 55.19C78.5 55.47 78.2 55.63 77.92 55.54C77.64 55.44 77.48 55.14 77.58 54.86L77.6 54.8C77.69 54.52 77.99 54.37 78.27 54.46ZM11.58 59.7C11.85 59.57 12.17 59.67 12.3 59.94L12.33 60C12.46 60.26 12.36 60.58 12.1 60.71C11.84 60.85 11.52 60.74 11.38 60.48L11.35 60.42C11.22 60.16 11.32 59.84 11.58 59.7ZM76.19 59.7C76.45 59.84 76.55 60.16 76.42 60.42L76.39 60.48C76.25 60.74 75.93 60.85 75.67 60.71C75.41 60.58 75.31 60.26 75.44 60L75.47 59.94C75.61 59.67 75.93 59.57 76.19 59.7ZM14.46 64.56C14.7 64.39 15.03 64.44 15.2 64.68L15.24 64.73C15.42 64.97 15.37 65.3 15.13 65.48C14.89 65.65 14.56 65.6 14.38 65.36L14.34 65.3C14.17 65.06 14.22 64.73 14.46 64.56ZM73.31 64.56C73.55 64.73 73.6 65.06 73.43 65.3L73.39 65.36C73.21 65.6 72.88 65.65 72.64 65.48C72.41 65.3 72.35 64.97 72.53 64.73L72.57 64.68C72.74 64.44 73.07 64.39 73.31 64.56ZM18.06 68.9C18.27 68.7 18.6 68.7 18.81 68.91L18.86 68.95C19.07 69.16 19.07 69.5 18.86 69.71C18.65 69.91 18.32 69.92 18.11 69.71L18.06 69.66C17.85 69.45 17.85 69.11 18.06 68.9ZM69.71 68.9C69.92 69.11 69.92 69.45 69.71 69.66L69.66 69.71C69.45 69.92 69.12 69.91 68.91 69.71C68.7 69.5 68.7 69.16 68.91 68.95L68.96 68.91C69.17 68.7 69.5 68.7 69.71 68.9ZM22.29 72.64C22.46 72.4 22.8 72.35 23.04 72.52L23.09 72.56C23.33 72.74 23.38 73.07 23.21 73.31C23.04 73.54 22.7 73.6 22.46 73.42L22.41 73.38C22.17 73.21 22.12 72.88 22.29 72.64ZM65.48 72.64C65.65 72.88 65.6 73.21 65.36 73.38L65.31 73.42C65.07 73.6 64.74 73.54 64.56 73.31C64.39 73.07 64.44 72.74 64.68 72.56L64.74 72.52C64.97 72.35 65.31 72.4 65.48 72.64ZM27.05 75.67C27.19 75.41 27.51 75.3 27.77 75.44L27.83 75.47C28.09 75.6 28.2 75.92 28.06 76.18C27.93 76.44 27.61 76.55 27.35 76.42L27.28 76.38C27.02 76.25 26.92 75.93 27.05 75.67ZM60.72 75.67C60.85 75.93 60.75 76.25 60.49 76.38L60.42 76.42C60.16 76.55 59.84 76.44 59.71 76.18C59.57 75.92 59.68 75.6 59.94 75.47L60 75.44C60.26 75.3 60.58 75.41 60.72 75.67ZM32.23 77.91C32.32 77.63 32.62 77.48 32.9 77.57L32.97 77.59C33.25 77.68 33.4 77.98 33.31 78.26C33.22 78.54 32.92 78.69 32.64 78.6L32.57 78.58C32.29 78.49 32.14 78.19 32.23 77.91ZM55.54 77.91C55.63 78.19 55.48 78.49 55.2 78.58L55.13 78.6C54.85 78.69 54.55 78.54 54.46 78.26C54.37 77.98 54.52 77.68 54.8 77.59L54.87 77.57C55.15 77.48 55.45 77.63 55.54 77.91ZM37.7 79.31C37.74 79.02 38.02 78.82 38.31 78.87L38.38 78.88C38.67 78.92 38.86 79.2 38.82 79.49C38.77 79.78 38.5 79.98 38.21 79.93L38.14 79.92C37.85 79.87 37.65 79.6 37.7 79.31ZM50.07 79.31C50.12 79.6 49.92 79.87 49.63 79.92L49.56 79.93C49.27 79.98 49 79.78 48.95 79.49C48.91 79.2 49.11 78.92 49.4 78.88L49.46 78.87C49.75 78.82 50.03 79.02 50.07 79.31ZM43.32 79.84C43.32 79.54 43.56 79.31 43.85 79.31L43.92 79.31C44.21 79.31 44.45 79.54 44.45 79.84C44.45 80.13 44.21 80.37 43.92 80.37L43.85 80.37C43.56 80.37 43.32 80.13 43.32 79.84Z" fill="#000000" fill-opacity="1.000000" fill-rule="evenodd"/>
	<path d="M45.07 79.84C45.07 80.49 44.54 81.02 43.89 81.02C43.23 81.02 42.7 80.49 42.7 79.84C42.7 79.18 43.23 78.66 43.89 78.66C44.54 78.66 45.07 79.18 45.07 79.84Z" fill="#000000" fill-opacity="1.000000" fill-rule="nonzero"/>
	<path d="M79.84 45.06C79.19 45.06 78.66 44.53 78.66 43.88C78.66 43.23 79.19 42.7 79.84 42.7C80.5 42.7 81.03 43.23 81.03 43.88C81.03 44.53 80.5 45.06 79.84 45.06Z" fill="#000000" fill-opacity="1.000000" fill-rule="nonzero"/>
	<g style="mix-blend-mode:normal">
		<path d="M45.07 7.92C45.07 8.58 44.54 9.11 43.89 9.11C43.23 9.11 42.7 8.58 42.7 7.92C42.7 7.27 43.23 6.74 43.89 6.74C44.54 6.74 45.07 7.27 45.07 7.92Z" fill="#000000" fill-opacity="1.000000" fill-rule="nonzero"/>
	</g>
	<path d="M7.93 45.06C7.28 45.06 6.75 44.53 6.75 43.88C6.75 43.23 7.28 42.7 7.93 42.7C8.58 42.7 9.11 43.23 9.11 43.88C9.11 44.53 8.58 45.06 7.93 45.06Z" fill="#000000" fill-opacity="1.000000" fill-rule="nonzero"/>
</svg>
