<svg width="135.000977" height="78.000000" viewBox="0 0 135.001 78" fill="none" xmlns="http://www.w3.org/2000/svg" xmlns:xlink="http://www.w3.org/1999/xlink">
	<desc>
			Created with Pixso.
	</desc>
	<defs/>
	<rect rx="-0.500000" width="134.000000" height="77.000000" transform="translate(0.500000 0.500000)" fill="#1A1A27" fill-opacity="0"/>
	<path d="M62 55.52L58.78 55.52L58.78 57.36C58.78 58.53 58.14 59.43 56.75 59.43L56.08 59.43L56.08 62.58L58.46 62.58L58.46 68.67C58.46 71.2 60.07 72.72 62.64 72.72C63.68 72.72 64.33 72.54 64.65 72.4L64.65 69.47C64.46 69.53 63.98 69.58 63.55 69.58C62.53 69.58 62 69.21 62 68.06L62 62.58L64.65 62.58L64.65 59.43L62 59.43L62 55.52ZM26.63 68.97C26.63 71.02 28.34 72.91 31.16 72.91C33.11 72.91 34.37 72 35.04 70.96C35.04 71.47 35.09 72.19 35.17 72.54L38.44 72.54C38.36 72.08 38.28 71.15 38.28 70.46L38.28 64.01C38.28 61.38 36.73 59.03 32.55 59.03C29.01 59.03 27.11 61.3 26.9 63.35L30.06 64.01C30.16 62.87 31.02 61.88 32.58 61.88C34.08 61.88 34.8 62.66 34.8 63.59C34.8 64.04 34.56 64.41 33.81 64.52L30.57 65C28.37 65.32 26.63 66.62 26.63 68.97ZM72.12 72.94C68.16 72.94 66.79 70.38 66.63 68.89L69.68 68.22C69.76 69.26 70.54 70.22 72.09 70.22C73.27 70.22 73.84 69.61 73.84 68.91C73.84 68.33 73.43 67.85 72.42 67.64L70.67 67.24C68.13 66.68 66.98 65.16 66.98 63.32C66.98 60.98 69.07 59.03 71.91 59.03C75.66 59.03 76.92 61.4 77.08 62.82L74.1 63.48C74 62.71 73.43 61.72 71.93 61.72C71 61.72 70.25 62.28 70.25 63.03C70.25 63.67 70.73 64.07 71.45 64.2L73.33 64.6C75.93 65.13 77.24 66.7 77.24 68.62C77.24 70.75 75.58 72.94 72.12 72.94ZM47.85 62.28C46.29 62.28 45.38 63.48 45.38 65L45.38 72.54L41.82 72.54L41.82 59.43L45.28 59.43L45.28 61.06C46.08 59.7 47.66 59.09 49.08 59.09C52.35 59.09 53.85 61.4 53.85 64.28L53.85 72.54L50.29 72.54L50.29 64.89C50.29 63.43 49.56 62.28 47.85 62.28ZM0 73.25C0.37 75.76 2.78 78 6.4 78C11.35 78 13.31 74.72 13.31 71.12L13.31 59.43L9.88 59.43L9.88 60.98C9.43 60.1 8.22 59.19 6.13 59.19C2.51 59.19 0 62.12 0 65.59C0 69.26 2.62 71.95 6.13 71.95C8.03 71.95 9.26 71.12 9.8 70.27L9.8 71.23C9.8 73.76 8.54 74.88 6.29 74.88C4.6 74.88 3.45 73.84 3.21 72.4L0 73.25ZM16.94 59.43L20.5 59.43L20.5 61.46C20.58 60.21 21.6 59.25 22.89 59.25C24.23 59.25 25.27 60.29 25.27 61.62C25.27 62.95 24.23 63.99 22.89 63.99C21.6 63.99 20.58 63.06 20.5 61.83L20.5 72.54L16.94 72.54L16.94 59.43ZM6.75 68.91C4.9 68.91 3.58 67.64 3.58 65.59C3.58 63.56 4.98 62.28 6.75 62.28C8.46 62.28 9.85 63.56 9.85 65.59C9.85 67.61 8.57 68.91 6.75 68.91ZM31.91 70.27C30.75 70.27 30.19 69.53 30.19 68.75C30.19 67.74 30.91 67.24 31.83 67.1L34.8 66.65L34.8 67.24C34.8 69.55 33.41 70.27 31.91 70.27Z" fill="#000000" fill-opacity="1.000000" fill-rule="evenodd"/>
	<path d="" fill="#000000" fill-opacity="0.300000" fill-rule="nonzero"/>
	<path d="M103.89 0.54L103.95 0.54C104.2 0.54 104.4 0.73 104.4 0.98C104.4 1.22 104.2 1.42 103.95 1.42L103.89 1.42C103.65 1.42 103.45 1.22 103.45 0.98C103.45 0.73 103.65 0.54 103.89 0.54ZM99.68 1.27C99.72 1.51 99.56 1.74 99.31 1.78L99.26 1.78C99.01 1.82 98.79 1.66 98.75 1.42C98.71 1.17 98.87 0.95 99.12 0.91L99.18 0.9C99.42 0.86 99.65 1.03 99.68 1.27ZM108.16 1.27C108.2 1.03 108.43 0.86 108.67 0.9L108.73 0.91C108.97 0.95 109.14 1.17 109.1 1.42C109.06 1.66 108.83 1.82 108.59 1.78L108.53 1.78C108.29 1.74 108.12 1.51 108.16 1.27ZM112.77 2.29C112.85 2.06 113.1 1.93 113.33 2L113.39 2.02C113.62 2.1 113.75 2.35 113.67 2.58C113.6 2.81 113.35 2.94 113.11 2.86L113.06 2.85C112.82 2.77 112.7 2.52 112.77 2.29ZM95.08 2.29C95.15 2.52 95.02 2.77 94.79 2.85L94.73 2.86C94.5 2.94 94.25 2.81 94.17 2.58C94.1 2.35 94.22 2.1 94.46 2.02L94.52 2C94.75 1.93 95 2.06 95.08 2.29ZM117.16 4.02C117.27 3.8 117.54 3.71 117.76 3.82L117.81 3.85C118.03 3.96 118.12 4.23 118.01 4.45C117.89 4.66 117.63 4.75 117.41 4.64L117.36 4.61C117.14 4.5 117.05 4.24 117.16 4.02ZM90.69 4.02C90.8 4.24 90.71 4.5 90.49 4.61L90.44 4.64C90.22 4.75 89.95 4.66 89.84 4.45C89.73 4.23 89.82 3.96 90.04 3.85L90.09 3.82C90.31 3.71 90.58 3.8 90.69 4.02ZM86.62 6.41C86.77 6.61 86.73 6.88 86.53 7.03L86.48 7.06C86.28 7.21 86 7.16 85.86 6.97C85.71 6.77 85.76 6.49 85.96 6.35L86 6.31C86.2 6.17 86.48 6.21 86.62 6.41ZM121.22 6.41C121.37 6.21 121.65 6.17 121.85 6.31L121.89 6.35C122.09 6.49 122.14 6.77 121.99 6.97C121.85 7.16 121.57 7.21 121.37 7.06L121.32 7.03C121.12 6.88 121.08 6.61 121.22 6.41ZM82.99 9.4C83.16 9.58 83.16 9.86 82.99 10.03L82.95 10.07C82.77 10.24 82.49 10.24 82.32 10.07C82.14 9.9 82.14 9.62 82.32 9.44L82.36 9.4C82.53 9.23 82.81 9.23 82.99 9.4ZM124.86 9.4C125.03 9.23 125.31 9.23 125.49 9.4L125.53 9.44C125.7 9.62 125.7 9.9 125.53 10.07C125.36 10.24 125.07 10.24 124.9 10.07L124.86 10.03C124.69 9.86 124.68 9.58 124.86 9.4ZM79.86 12.92C80.06 13.07 80.11 13.34 79.96 13.54L79.93 13.59C79.78 13.78 79.5 13.83 79.31 13.69C79.11 13.54 79.06 13.26 79.21 13.07L79.24 13.02C79.39 12.82 79.67 12.78 79.86 12.92ZM127.98 12.92C128.18 12.78 128.46 12.82 128.6 13.02L128.64 13.07C128.78 13.26 128.74 13.54 128.54 13.69C128.34 13.83 128.06 13.78 127.92 13.59L127.89 13.54C127.74 13.34 127.78 13.07 127.98 12.92ZM130.52 16.88C130.74 16.77 131 16.86 131.12 17.07L131.14 17.13C131.25 17.35 131.17 17.61 130.95 17.72C130.73 17.83 130.46 17.75 130.35 17.53L130.32 17.48C130.21 17.26 130.3 16.99 130.52 16.88ZM132.39 21.19C132.63 21.11 132.88 21.24 132.96 21.47L132.97 21.53C133.05 21.76 132.92 22.01 132.69 22.09C132.45 22.16 132.2 22.03 132.13 21.8L132.11 21.75C132.03 21.51 132.16 21.26 132.39 21.19ZM133.57 25.74C133.81 25.7 134.04 25.86 134.07 26.1L134.08 26.16C134.12 26.4 133.96 26.63 133.71 26.67C133.47 26.7 133.24 26.54 133.2 26.3L133.19 26.24C133.16 26 133.32 25.77 133.57 25.74ZM134 30.41C134.25 30.41 134.45 30.61 134.45 30.85L134.45 30.91C134.45 31.15 134.25 31.35 134 31.35C133.76 31.35 133.56 31.15 133.56 30.91L133.56 30.85C133.56 30.61 133.76 30.41 134 30.41ZM133.71 35.09C133.96 35.13 134.12 35.36 134.08 35.6L134.07 35.66C134.04 35.9 133.81 36.06 133.57 36.03C133.32 35.99 133.16 35.76 133.19 35.52L133.2 35.46C133.24 35.22 133.47 35.06 133.71 35.09ZM132.69 39.67C132.92 39.75 133.05 40 132.97 40.23L132.96 40.29C132.88 40.52 132.63 40.65 132.39 40.57C132.16 40.5 132.03 40.25 132.11 40.01L132.13 39.96C132.2 39.73 132.45 39.6 132.69 39.67ZM76.9 44.04C77.12 43.93 77.39 44.01 77.5 44.23L77.52 44.28C77.64 44.5 77.55 44.77 77.33 44.88C77.11 44.99 76.84 44.9 76.73 44.69L76.71 44.63C76.59 44.42 76.68 44.15 76.9 44.04ZM130.95 44.04C131.17 44.15 131.25 44.42 131.14 44.63L131.12 44.69C131 44.9 130.74 44.99 130.52 44.88C130.3 44.77 130.21 44.5 130.32 44.28L130.35 44.23C130.46 44.01 130.73 43.93 130.95 44.04ZM79.31 48.08C79.5 47.93 79.78 47.98 79.93 48.17L79.96 48.22C80.11 48.42 80.06 48.69 79.86 48.84C79.67 48.98 79.39 48.94 79.24 48.74L79.21 48.69C79.06 48.5 79.11 48.22 79.31 48.08ZM128.54 48.08C128.74 48.22 128.78 48.5 128.64 48.69L128.6 48.74C128.46 48.94 128.18 48.98 127.98 48.84C127.78 48.69 127.74 48.42 127.89 48.22L127.92 48.17C128.06 47.98 128.34 47.93 128.54 48.08ZM82.32 51.69C82.49 51.52 82.77 51.52 82.95 51.69L82.99 51.73C83.16 51.9 83.16 52.18 82.99 52.36C82.81 52.53 82.53 52.53 82.36 52.36L82.32 52.32C82.14 52.14 82.14 51.86 82.32 51.69ZM125.53 51.69C125.7 51.86 125.7 52.14 125.53 52.32L125.49 52.36C125.31 52.53 125.03 52.53 124.86 52.36C124.68 52.18 124.69 51.9 124.86 51.73L124.9 51.69C125.07 51.52 125.36 51.52 125.53 51.69ZM85.86 54.8C86 54.6 86.28 54.55 86.48 54.7L86.53 54.73C86.73 54.88 86.77 55.15 86.62 55.35C86.48 55.55 86.2 55.59 86 55.45L85.96 55.41C85.76 55.27 85.71 54.99 85.86 54.8ZM121.99 54.8C122.14 54.99 122.09 55.27 121.89 55.41L121.84 55.45C121.65 55.59 121.37 55.55 121.22 55.35C121.08 55.15 121.12 54.88 121.32 54.73L121.37 54.7C121.57 54.55 121.85 54.6 121.99 54.8ZM89.84 57.31C89.95 57.1 90.22 57.01 90.44 57.12L90.49 57.15C90.71 57.26 90.8 57.52 90.69 57.74C90.58 57.96 90.31 58.05 90.09 57.94L90.04 57.91C89.82 57.8 89.73 57.53 89.84 57.31ZM118.01 57.31C118.12 57.53 118.03 57.8 117.81 57.91L117.76 57.94C117.54 58.05 117.27 57.96 117.16 57.74C117.05 57.52 117.14 57.26 117.36 57.15L117.41 57.12C117.63 57.01 117.89 57.1 118.01 57.31ZM94.17 59.18C94.25 58.95 94.5 58.82 94.73 58.9L94.79 58.91C95.02 58.99 95.15 59.24 95.08 59.47C95 59.7 94.75 59.83 94.52 59.76L94.46 59.74C94.22 59.66 94.1 59.41 94.17 59.18ZM113.67 59.18C113.75 59.41 113.62 59.66 113.39 59.74L113.33 59.76C113.1 59.83 112.85 59.7 112.77 59.47C112.7 59.24 112.82 58.99 113.06 58.91L113.11 58.9C113.35 58.82 113.6 58.95 113.67 59.18ZM98.75 60.34C98.79 60.1 99.01 59.94 99.26 59.98L99.31 59.98C99.56 60.02 99.72 60.25 99.68 60.49C99.65 60.73 99.42 60.9 99.18 60.86L99.12 60.85C98.87 60.81 98.71 60.59 98.75 60.34ZM109.1 60.34C109.14 60.59 108.97 60.81 108.73 60.85L108.67 60.86C108.43 60.9 108.2 60.73 108.16 60.49C108.12 60.25 108.29 60.02 108.53 59.98L108.59 59.98C108.83 59.94 109.06 60.1 109.1 60.34ZM103.45 60.78C103.45 60.54 103.65 60.34 103.89 60.34L103.95 60.34C104.2 60.34 104.4 60.54 104.4 60.78C104.4 61.03 104.2 61.22 103.95 61.22L103.89 61.22C103.65 61.22 103.45 61.03 103.45 60.78Z" fill="#000000" fill-opacity="1.000000" fill-rule="evenodd"/>
	<g style="mix-blend-mode:normal">
		<path d="M104.91 0.98C104.91 1.52 104.47 1.96 103.93 1.96C103.38 1.96 102.93 1.52 102.93 0.98C102.93 0.44 103.38 0 103.93 0C104.47 0 104.91 0.44 104.91 0.98Z" fill="#000000" fill-opacity="1.000000" fill-rule="nonzero"/>
	</g>
	<path d="M104.91 60.78C104.91 61.32 104.47 61.77 103.93 61.77C103.38 61.77 102.93 61.32 102.93 60.78C102.93 60.24 103.38 59.8 103.93 59.8C104.47 59.8 104.91 60.24 104.91 60.78Z" fill="#000000" fill-opacity="1.000000" fill-rule="nonzero"/>
	<path d="M134.01 31.86C133.46 31.86 133.02 31.42 133.02 30.88C133.02 30.34 133.46 29.9 134.01 29.9C134.55 29.9 135 30.34 135 30.88C135 31.42 134.55 31.86 134.01 31.86Z" fill="#000000" fill-opacity="1.000000" fill-rule="nonzero"/>
	<path d="M112.57 12.44L120.77 12.44L94.35 49.23L86.28 49.23L112.57 12.44ZM102.93 23.28L95.19 12.44L86.96 12.44L98.89 29.19L102.93 23.28ZM100.9 23.3L98.86 26.29L90.17 14.1L94.33 14.1L100.9 23.3ZM89.5 47.57L93.5 47.57L117.55 14.1L113.43 14.1L89.5 47.57Z" fill="#000000" fill-opacity="1.000000" fill-rule="evenodd"/>
	<path d="M114.63 47.67L118.36 47.67L109.41 35.03C109.21 34.74 108.79 34.74 108.59 35.03L107.13 37.1C107.01 37.27 107.01 37.51 107.14 37.68L114.22 47.46C114.32 47.59 114.47 47.67 114.63 47.67ZM104.89 37.4L113.52 49.32L121.57 49.32L108.99 31.57L104.89 37.4Z" fill="#000000" fill-opacity="1.000000" fill-rule="evenodd"/>
	<path d="" fill="#000000" fill-opacity="1.000000" fill-rule="nonzero"/>
</svg>
