<svg width="1441.000000" height="793.000000" viewBox="0 0 1441 793" fill="none" xmlns="http://www.w3.org/2000/svg" xmlns:xlink="http://www.w3.org/1999/xlink">
	<desc>
			Created with Pixso.
	</desc>
	<defs>
		<linearGradient x1="720.499939" y1="0.500000" x2="720.499939" y2="792.500000" id="paint_linear_2352_31575_0" gradientUnits="userSpaceOnUse">
			<stop stop-color="#FFFFFF"/>
			<stop offset="1.000000" stop-color="#FFFFFF" stop-opacity="0.000000"/>
		</linearGradient>
	</defs>
	<rect id="Grid top (Zero Height)" rx="-0.500000" width="1439.000000" height="-1.000000" transform="translate(0.808594 1.000000)" fill="#FFFFFF" fill-opacity="1.000000"/>
	<rect id="Grid - Top" rx="-0.500000" width="1439.000000" height="791.000000" transform="translate(1.000000 1.000000)" fill="#FFFFFF" fill-opacity="0"/>
	<mask id="mask2352_31575" mask-type="alpha" maskUnits="userSpaceOnUse" x="0.500000" y="0.500000" width="1440.000000" height="792.000000">
		<rect id="Rectangle" x="0.500000" y="0.500000" width="1440.000000" height="792.000000" fill="url(#paint_linear_2352_31575_0)" fill-opacity="1.000000"/>
	</mask>
	<g mask="url(#mask2352_31575)">
		<rect id="Rectangle" x="0.500000" y="0.500000" width="24.000000" height="792.000000" stroke="#393953" stroke-opacity="0.300000" stroke-width="1.000000"/>
		<rect id="Rectangle" x="24.500000" y="0.500000" width="24.000000" height="792.000000" stroke="#393953" stroke-opacity="0.300000" stroke-width="1.000000"/>
		<rect id="Rectangle" x="48.500000" y="0.500000" width="24.000000" height="792.000000" stroke="#393953" stroke-opacity="0.300000" stroke-width="1.000000"/>
		<rect id="Rectangle" x="72.500000" y="0.500000" width="24.000000" height="792.000000" stroke="#393953" stroke-opacity="0.300000" stroke-width="1.000000"/>
		<rect id="Rectangle" x="96.500000" y="0.500000" width="24.000000" height="792.000000" stroke="#393953" stroke-opacity="0.300000" stroke-width="1.000000"/>
		<rect id="Rectangle" x="120.500000" y="0.500000" width="24.000000" height="792.000000" stroke="#393953" stroke-opacity="0.300000" stroke-width="1.000000"/>
		<rect id="Rectangle" x="144.500000" y="0.500000" width="24.000000" height="792.000000" stroke="#393953" stroke-opacity="0.300000" stroke-width="1.000000"/>
		<rect id="Rectangle" x="168.500000" y="0.500000" width="24.000000" height="792.000000" stroke="#393953" stroke-opacity="0.300000" stroke-width="1.000000"/>
		<rect id="Rectangle" x="192.500000" y="0.500000" width="24.000000" height="792.000000" stroke="#393953" stroke-opacity="0.300000" stroke-width="1.000000"/>
		<rect id="Rectangle" x="216.500000" y="0.500000" width="24.000000" height="792.000000" stroke="#393953" stroke-opacity="0.300000" stroke-width="1.000000"/>
		<rect id="Rectangle" x="240.500000" y="0.500000" width="24.000000" height="792.000000" stroke="#393953" stroke-opacity="0.300000" stroke-width="1.000000"/>
		<rect id="Rectangle" x="264.500000" y="0.500000" width="24.000000" height="792.000000" stroke="#393953" stroke-opacity="0.300000" stroke-width="1.000000"/>
		<rect id="Rectangle" x="288.500000" y="0.500000" width="24.000000" height="792.000000" stroke="#393953" stroke-opacity="0.300000" stroke-width="1.000000"/>
		<rect id="Rectangle" x="312.500000" y="0.500000" width="24.000000" height="792.000000" stroke="#393953" stroke-opacity="0.300000" stroke-width="1.000000"/>
		<rect id="Rectangle" x="336.500000" y="0.500000" width="24.000000" height="792.000000" stroke="#393953" stroke-opacity="0.300000" stroke-width="1.000000"/>
		<rect id="Rectangle" x="360.500000" y="0.500000" width="24.000000" height="792.000000" stroke="#393953" stroke-opacity="0.300000" stroke-width="1.000000"/>
		<rect id="Rectangle" x="384.500000" y="0.500000" width="24.000000" height="792.000000" stroke="#393953" stroke-opacity="0.300000" stroke-width="1.000000"/>
		<rect id="Rectangle" x="408.500000" y="0.500000" width="24.000000" height="792.000000" stroke="#393953" stroke-opacity="0.300000" stroke-width="1.000000"/>
		<rect id="Rectangle" x="432.500000" y="0.500000" width="24.000000" height="792.000000" stroke="#393953" stroke-opacity="0.300000" stroke-width="1.000000"/>
		<rect id="Rectangle" x="456.500000" y="0.500000" width="24.000000" height="792.000000" stroke="#393953" stroke-opacity="0.300000" stroke-width="1.000000"/>
		<rect id="Rectangle" x="480.500000" y="0.500000" width="24.000000" height="792.000000" stroke="#393953" stroke-opacity="0.300000" stroke-width="1.000000"/>
		<rect id="Rectangle" x="504.500000" y="0.500000" width="24.000000" height="792.000000" stroke="#393953" stroke-opacity="0.300000" stroke-width="1.000000"/>
		<rect id="Rectangle" x="528.500000" y="0.500000" width="24.000000" height="792.000000" stroke="#393953" stroke-opacity="0.300000" stroke-width="1.000000"/>
		<rect id="Rectangle" x="552.500000" y="0.500000" width="24.000000" height="792.000000" stroke="#393953" stroke-opacity="0.300000" stroke-width="1.000000"/>
		<rect id="Rectangle" x="576.500000" y="0.500000" width="24.000000" height="792.000000" stroke="#393953" stroke-opacity="0.300000" stroke-width="1.000000"/>
		<rect id="Rectangle" x="600.500000" y="0.500000" width="24.000000" height="792.000000" stroke="#393953" stroke-opacity="0.300000" stroke-width="1.000000"/>
		<rect id="Rectangle" x="624.500000" y="0.500000" width="24.000000" height="792.000000" stroke="#393953" stroke-opacity="0.300000" stroke-width="1.000000"/>
		<rect id="Rectangle" x="648.500000" y="0.500000" width="24.000000" height="792.000000" stroke="#393953" stroke-opacity="0.300000" stroke-width="1.000000"/>
		<rect id="Rectangle" x="672.500000" y="0.500000" width="24.000000" height="792.000000" stroke="#393953" stroke-opacity="0.300000" stroke-width="1.000000"/>
		<rect id="Rectangle" x="696.500000" y="0.500000" width="24.000000" height="792.000000" stroke="#393953" stroke-opacity="0.300000" stroke-width="1.000000"/>
		<rect id="Rectangle" x="720.500000" y="0.500000" width="24.000000" height="792.000000" stroke="#393953" stroke-opacity="0.300000" stroke-width="1.000000"/>
		<rect id="Rectangle" x="744.500000" y="0.500000" width="24.000000" height="792.000000" stroke="#393953" stroke-opacity="0.300000" stroke-width="1.000000"/>
		<rect id="Rectangle" x="768.500000" y="0.500000" width="24.000000" height="792.000000" stroke="#393953" stroke-opacity="0.300000" stroke-width="1.000000"/>
		<rect id="Rectangle" x="792.500000" y="0.500000" width="24.000000" height="792.000000" stroke="#393953" stroke-opacity="0.300000" stroke-width="1.000000"/>
		<rect id="Rectangle" x="816.500000" y="0.500000" width="24.000000" height="792.000000" stroke="#393953" stroke-opacity="0.300000" stroke-width="1.000000"/>
		<rect id="Rectangle" x="840.500000" y="0.500000" width="24.000000" height="792.000000" stroke="#393953" stroke-opacity="0.300000" stroke-width="1.000000"/>
		<rect id="Rectangle" x="864.500000" y="0.500000" width="24.000000" height="792.000000" stroke="#393953" stroke-opacity="0.300000" stroke-width="1.000000"/>
		<rect id="Rectangle" x="888.500000" y="0.500000" width="24.000000" height="792.000000" stroke="#393953" stroke-opacity="0.300000" stroke-width="1.000000"/>
		<rect id="Rectangle" x="912.500000" y="0.500000" width="24.000000" height="792.000000" stroke="#393953" stroke-opacity="0.300000" stroke-width="1.000000"/>
		<rect id="Rectangle" x="936.500000" y="0.500000" width="24.000000" height="792.000000" stroke="#393953" stroke-opacity="0.300000" stroke-width="1.000000"/>
		<rect id="Rectangle" x="960.500000" y="0.500000" width="24.000000" height="792.000000" stroke="#393953" stroke-opacity="0.300000" stroke-width="1.000000"/>
		<rect id="Rectangle" x="984.500000" y="0.500000" width="24.000000" height="792.000000" stroke="#393953" stroke-opacity="0.300000" stroke-width="1.000000"/>
		<rect id="Rectangle" x="1008.500000" y="0.500000" width="24.000000" height="792.000000" stroke="#393953" stroke-opacity="0.300000" stroke-width="1.000000"/>
		<rect id="Rectangle" x="1032.500000" y="0.500000" width="24.000000" height="792.000000" stroke="#393953" stroke-opacity="0.300000" stroke-width="1.000000"/>
		<rect id="Rectangle" x="1056.500000" y="0.500000" width="24.000000" height="792.000000" stroke="#393953" stroke-opacity="0.300000" stroke-width="1.000000"/>
		<rect id="Rectangle" x="1080.500000" y="0.500000" width="24.000000" height="792.000000" stroke="#393953" stroke-opacity="0.300000" stroke-width="1.000000"/>
		<rect id="Rectangle" x="1104.500000" y="0.500000" width="24.000000" height="792.000000" stroke="#393953" stroke-opacity="0.300000" stroke-width="1.000000"/>
		<rect id="Rectangle" x="1128.500000" y="0.500000" width="24.000000" height="792.000000" stroke="#393953" stroke-opacity="0.300000" stroke-width="1.000000"/>
		<rect id="Rectangle" x="1152.500000" y="0.500000" width="24.000000" height="792.000000" stroke="#393953" stroke-opacity="0.300000" stroke-width="1.000000"/>
		<rect id="Rectangle" x="1176.500000" y="0.500000" width="24.000000" height="792.000000" stroke="#393953" stroke-opacity="0.300000" stroke-width="1.000000"/>
		<rect id="Rectangle" x="1200.500000" y="0.500000" width="24.000000" height="792.000000" stroke="#393953" stroke-opacity="0.300000" stroke-width="1.000000"/>
		<rect id="Rectangle" x="1224.500000" y="0.500000" width="24.000000" height="792.000000" stroke="#393953" stroke-opacity="0.300000" stroke-width="1.000000"/>
		<rect id="Rectangle" x="1248.500000" y="0.500000" width="24.000000" height="792.000000" stroke="#393953" stroke-opacity="0.300000" stroke-width="1.000000"/>
		<rect id="Rectangle" x="1272.500000" y="0.500000" width="24.000000" height="792.000000" stroke="#393953" stroke-opacity="0.300000" stroke-width="1.000000"/>
		<rect id="Rectangle" x="1296.500000" y="0.500000" width="24.000000" height="792.000000" stroke="#393953" stroke-opacity="0.300000" stroke-width="1.000000"/>
		<rect id="Rectangle" x="1320.500000" y="0.500000" width="24.000000" height="792.000000" stroke="#393953" stroke-opacity="0.300000" stroke-width="1.000000"/>
		<rect id="Rectangle" x="1344.500000" y="0.500000" width="24.000000" height="792.000000" stroke="#393953" stroke-opacity="0.300000" stroke-width="1.000000"/>
		<rect id="Rectangle" x="1368.500000" y="0.500000" width="24.000000" height="792.000000" stroke="#393953" stroke-opacity="0.300000" stroke-width="1.000000"/>
		<rect id="Rectangle" x="1392.500000" y="0.500000" width="24.000000" height="792.000000" stroke="#393953" stroke-opacity="0.300000" stroke-width="1.000000"/>
		<rect id="Rectangle" x="1416.500000" y="0.500000" width="24.000000" height="792.000000" stroke="#393953" stroke-opacity="0.300000" stroke-width="1.000000"/>
		<rect id="Rectangle" width="24.000000" height="1440.000000" transform="matrix(3.70328e-23 -1 1 -7.10543e-15 0.5 24.5)" stroke="#393953" stroke-opacity="0.300000" stroke-width="1.000000"/>
		<rect id="Rectangle" width="24.000000" height="1440.000000" transform="matrix(3.70328e-23 -1 1 -7.10543e-15 0.5 48.5)" stroke="#393953" stroke-opacity="0.300000" stroke-width="1.000000"/>
		<rect id="Rectangle" width="24.000000" height="1440.000000" transform="matrix(3.70328e-23 -1 1 -7.10543e-15 0.5 72.5)" stroke="#393953" stroke-opacity="0.300000" stroke-width="1.000000"/>
		<rect id="Rectangle" width="24.000000" height="1440.000000" transform="matrix(3.70328e-23 -1 1 -7.10543e-15 0.5 96.5)" stroke="#393953" stroke-opacity="0.300000" stroke-width="1.000000"/>
		<rect id="Rectangle" width="24.000000" height="1440.000000" transform="matrix(3.70328e-23 -1 1 -7.10543e-15 0.5 120.5)" stroke="#393953" stroke-opacity="0.300000" stroke-width="1.000000"/>
		<rect id="Rectangle" width="24.000000" height="1440.000000" transform="matrix(3.70328e-23 -1 1 -7.10543e-15 0.5 144.5)" stroke="#393953" stroke-opacity="0.300000" stroke-width="1.000000"/>
		<rect id="Rectangle" width="24.000000" height="1440.000000" transform="matrix(3.70328e-23 -1 1 -7.10543e-15 0.5 168.5)" stroke="#393953" stroke-opacity="0.300000" stroke-width="1.000000"/>
		<rect id="Rectangle" width="24.000000" height="1440.000000" transform="matrix(3.70328e-23 -1 1 -7.10543e-15 0.5 192.5)" stroke="#393953" stroke-opacity="0.300000" stroke-width="1.000000"/>
		<rect id="Rectangle" width="24.000000" height="1440.000000" transform="matrix(3.70328e-23 -1 1 -7.10543e-15 0.5 216.5)" stroke="#393953" stroke-opacity="0.300000" stroke-width="1.000000"/>
		<rect id="Rectangle" width="24.000000" height="1440.000000" transform="matrix(3.70328e-23 -1 1 -7.10543e-15 0.5 240.5)" stroke="#393953" stroke-opacity="0.300000" stroke-width="1.000000"/>
		<rect id="Rectangle" width="24.000000" height="1440.000000" transform="matrix(3.70328e-23 -1 1 -7.10543e-15 0.5 264.5)" stroke="#393953" stroke-opacity="0.300000" stroke-width="1.000000"/>
		<rect id="Rectangle" width="24.000000" height="1440.000000" transform="matrix(3.70328e-23 -1 1 -7.10543e-15 0.5 288.5)" stroke="#393953" stroke-opacity="0.300000" stroke-width="1.000000"/>
		<rect id="Rectangle" width="24.000000" height="1440.000000" transform="matrix(3.70328e-23 -1 1 -7.10543e-15 0.5 312.5)" stroke="#393953" stroke-opacity="0.300000" stroke-width="1.000000"/>
		<rect id="Rectangle" width="24.000000" height="1440.000000" transform="matrix(3.70328e-23 -1 1 -7.10543e-15 0.5 336.5)" stroke="#393953" stroke-opacity="0.300000" stroke-width="1.000000"/>
		<rect id="Rectangle" width="24.000000" height="1440.000000" transform="matrix(3.70328e-23 -1 1 -7.10543e-15 0.5 360.5)" stroke="#393953" stroke-opacity="0.300000" stroke-width="1.000000"/>
		<rect id="Rectangle" width="24.000000" height="1440.000000" transform="matrix(3.70328e-23 -1 1 -7.10543e-15 0.5 384.5)" stroke="#393953" stroke-opacity="0.300000" stroke-width="1.000000"/>
		<rect id="Rectangle" width="24.000000" height="1440.000000" transform="matrix(3.70328e-23 -1 1 -7.10543e-15 0.5 408.5)" stroke="#393953" stroke-opacity="0.300000" stroke-width="1.000000"/>
		<rect id="Rectangle" width="24.000000" height="1440.000000" transform="matrix(3.70328e-23 -1 1 -7.10543e-15 0.5 432.5)" stroke="#393953" stroke-opacity="0.300000" stroke-width="1.000000"/>
		<rect id="Rectangle" width="24.000000" height="1440.000000" transform="matrix(3.70328e-23 -1 1 -7.10543e-15 0.5 456.5)" stroke="#393953" stroke-opacity="0.300000" stroke-width="1.000000"/>
		<rect id="Rectangle" width="24.000000" height="1440.000000" transform="matrix(3.70328e-23 -1 1 -7.10543e-15 0.5 480.5)" stroke="#393953" stroke-opacity="0.300000" stroke-width="1.000000"/>
		<rect id="Rectangle" width="24.000000" height="1440.000000" transform="matrix(3.70328e-23 -1 1 -7.10543e-15 0.5 504.5)" stroke="#393953" stroke-opacity="0.300000" stroke-width="1.000000"/>
		<rect id="Rectangle" width="24.000000" height="1440.000000" transform="matrix(3.70328e-23 -1 1 -7.10543e-15 0.5 528.5)" stroke="#393953" stroke-opacity="0.300000" stroke-width="1.000000"/>
		<rect id="Rectangle" width="24.000000" height="1440.000000" transform="matrix(3.70328e-23 -1 1 -7.10543e-15 0.5 552.5)" stroke="#393953" stroke-opacity="0.300000" stroke-width="1.000000"/>
		<rect id="Rectangle" width="24.000000" height="1440.000000" transform="matrix(3.70328e-23 -1 1 -7.10543e-15 0.5 576.5)" stroke="#393953" stroke-opacity="0.300000" stroke-width="1.000000"/>
		<rect id="Rectangle" width="24.000000" height="1440.000000" transform="matrix(3.70328e-23 -1 1 -7.10543e-15 0.5 600.5)" stroke="#393953" stroke-opacity="0.300000" stroke-width="1.000000"/>
		<rect id="Rectangle" width="24.000000" height="1440.000000" transform="matrix(3.70328e-23 -1 1 -7.10543e-15 0.5 624.5)" stroke="#393953" stroke-opacity="0.300000" stroke-width="1.000000"/>
		<rect id="Rectangle" width="24.000000" height="1440.000000" transform="matrix(3.70328e-23 -1 1 -7.10543e-15 0.5 648.5)" stroke="#393953" stroke-opacity="0.300000" stroke-width="1.000000"/>
		<rect id="Rectangle" width="24.000000" height="1440.000000" transform="matrix(3.70328e-23 -1 1 -7.10543e-15 0.5 672.5)" stroke="#393953" stroke-opacity="0.300000" stroke-width="1.000000"/>
		<rect id="Rectangle" width="24.000000" height="1440.000000" transform="matrix(3.70328e-23 -1 1 -7.10543e-15 0.5 696.5)" stroke="#393953" stroke-opacity="0.300000" stroke-width="1.000000"/>
		<rect id="Rectangle" width="24.000000" height="1440.000000" transform="matrix(3.70328e-23 -1 1 -7.10543e-15 0.5 720.5)" stroke="#393953" stroke-opacity="0.300000" stroke-width="1.000000"/>
		<rect id="Rectangle" width="24.000000" height="1440.000000" transform="matrix(3.70328e-23 -1 1 -7.10543e-15 0.5 744.5)" stroke="#393953" stroke-opacity="0.300000" stroke-width="1.000000"/>
		<rect id="Rectangle" width="24.000000" height="1440.000000" transform="matrix(3.70328e-23 -1 1 -7.10543e-15 0.5 768.5)" stroke="#393953" stroke-opacity="0.300000" stroke-width="1.000000"/>
		<rect id="Rectangle" width="24.000000" height="1440.000000" transform="matrix(3.70328e-23 -1 1 -7.10543e-15 0.5 792.5)" stroke="#393953" stroke-opacity="0.300000" stroke-width="1.000000"/>
	</g>
</svg>
